<svg width="213" height="11" viewBox="0 0 213 11" fill="none" xmlns="http://www.w3.org/2000/svg">
<path d="M4.70339 9.036C4.10339 9.036 3.54739 8.928 3.03539 8.712C2.52339 8.496 2.07539 8.196 1.69139 7.812C1.30739 7.42 1.00739 6.968 0.791392 6.456C0.583392 5.944 0.479392 5.392 0.479392 4.8C0.479392 4.208 0.587392 3.656 0.803392 3.144C1.01939 2.632 1.31939 2.184 1.70339 1.8C2.08739 1.408 2.53539 1.104 3.04739 0.887999C3.56739 0.672 4.12739 0.564 4.72739 0.564C5.32739 0.564 5.88339 0.672 6.39539 0.887999C6.91539 1.096 7.36339 1.392 7.73939 1.776C8.12339 2.16 8.41939 2.608 8.62739 3.12C8.84339 3.624 8.95139 4.176 8.95139 4.776C8.95139 5.376 8.84339 5.936 8.62739 6.456C8.41139 6.968 8.10739 7.42 7.71539 7.812C7.33139 8.196 6.88339 8.496 6.37139 8.712C5.85939 8.928 5.30339 9.036 4.70339 9.036ZM4.69139 8.592C5.23539 8.592 5.73539 8.496 6.19139 8.304C6.64739 8.104 7.04739 7.832 7.39139 7.488C7.74339 7.144 8.01539 6.74 8.20739 6.276C8.39939 5.804 8.49539 5.304 8.49539 4.776C8.49539 4.24 8.39939 3.744 8.20739 3.288C8.02339 2.832 7.75939 2.432 7.41539 2.088C7.07939 1.744 6.67939 1.48 6.21539 1.296C5.75939 1.104 5.26339 1.008 4.72739 1.008C4.18339 1.008 3.67939 1.104 3.21539 1.296C2.75139 1.488 2.34739 1.76 2.00339 2.112C1.66739 2.456 1.40339 2.856 1.21139 3.312C1.01939 3.768 0.923392 4.264 0.923392 4.8C0.923392 5.328 1.01939 5.824 1.21139 6.288C1.40339 6.744 1.66739 7.148 2.00339 7.5C2.34739 7.844 2.74739 8.112 3.20339 8.304C3.66739 8.496 4.16339 8.592 4.69139 8.592ZM4.81139 7.296C4.33139 7.296 3.90339 7.192 3.52739 6.984C3.15139 6.768 2.85539 6.472 2.63939 6.096C2.42339 5.72 2.31539 5.288 2.31539 4.8C2.31539 4.312 2.42339 3.88 2.63939 3.504C2.85539 3.128 3.15139 2.836 3.52739 2.628C3.90339 2.412 4.33139 2.304 4.81139 2.304C5.21939 2.304 5.58739 2.388 5.91539 2.556C6.25139 2.716 6.51939 2.94 6.71939 3.228L6.20339 3.612C6.03539 3.38 5.83139 3.208 5.59139 3.096C5.35139 2.984 5.08739 2.928 4.79939 2.928C4.45539 2.928 4.14739 3.008 3.87539 3.168C3.61139 3.32 3.39939 3.536 3.23939 3.816C3.07939 4.096 2.99939 4.424 2.99939 4.8C2.99939 5.176 3.07939 5.504 3.23939 5.784C3.39939 6.064 3.61139 6.284 3.87539 6.444C4.14739 6.596 4.45539 6.672 4.79939 6.672C5.08739 6.672 5.35139 6.616 5.59139 6.504C5.83139 6.392 6.03539 6.22 6.20339 5.988L6.71939 6.36C6.51939 6.656 6.25139 6.888 5.91539 7.056C5.58739 7.216 5.21939 7.296 4.81139 7.296ZM13.7071 9V0.599999H16.8511C17.5631 0.599999 18.1751 0.716 18.6871 0.948C19.1991 1.172 19.5911 1.5 19.8631 1.932C20.1431 2.356 20.2831 2.872 20.2831 3.48C20.2831 4.072 20.1431 4.584 19.8631 5.016C19.5911 5.44 19.1991 5.768 18.6871 6C18.1751 6.232 17.5631 6.348 16.8511 6.348H14.1991L14.5951 5.928V9H13.7071ZM14.5951 6L14.1991 5.568H16.8271C17.6671 5.568 18.3031 5.388 18.7351 5.028C19.1751 4.66 19.3951 4.144 19.3951 3.48C19.3951 2.808 19.1751 2.288 18.7351 1.92C18.3031 1.552 17.6671 1.368 16.8271 1.368H14.1991L14.5951 0.948V6ZM25.1764 2.64C25.6884 2.64 26.1364 2.74 26.5204 2.94C26.9124 3.132 27.2164 3.428 27.4324 3.828C27.6564 4.228 27.7684 4.732 27.7684 5.34V9H26.9164V5.424C26.9164 4.76 26.7484 4.26 26.4124 3.924C26.0844 3.58 25.6204 3.408 25.0204 3.408C24.5724 3.408 24.1804 3.5 23.8444 3.684C23.5164 3.86 23.2604 4.12 23.0764 4.464C22.9004 4.8 22.8124 5.208 22.8124 5.688V9H21.9604V0.0959995H22.8124V4.428L22.6444 4.104C22.8444 3.648 23.1644 3.292 23.6044 3.036C24.0444 2.772 24.5684 2.64 25.1764 2.64ZM32.4578 9.06C31.8498 9.06 31.3018 8.924 30.8138 8.652C30.3338 8.372 29.9538 7.992 29.6738 7.512C29.3938 7.024 29.2538 6.468 29.2538 5.844C29.2538 5.212 29.3938 4.656 29.6738 4.176C29.9538 3.696 30.3338 3.32 30.8138 3.048C31.2938 2.776 31.8418 2.64 32.4578 2.64C33.0818 2.64 33.6338 2.776 34.1138 3.048C34.6018 3.32 34.9818 3.696 35.2538 4.176C35.5338 4.656 35.6738 5.212 35.6738 5.844C35.6738 6.468 35.5338 7.024 35.2538 7.512C34.9818 7.992 34.6018 8.372 34.1138 8.652C33.6258 8.924 33.0738 9.06 32.4578 9.06ZM32.4578 8.304C32.9138 8.304 33.3178 8.204 33.6698 8.004C34.0218 7.796 34.2978 7.508 34.4978 7.14C34.7058 6.764 34.8098 6.332 34.8098 5.844C34.8098 5.348 34.7058 4.916 34.4978 4.548C34.2978 4.18 34.0218 3.896 33.6698 3.696C33.3178 3.488 32.9178 3.384 32.4698 3.384C32.0218 3.384 31.6218 3.488 31.2698 3.696C30.9178 3.896 30.6378 4.18 30.4298 4.548C30.2218 4.916 30.1178 5.348 30.1178 5.844C30.1178 6.332 30.2218 6.764 30.4298 7.14C30.6378 7.508 30.9178 7.796 31.2698 8.004C31.6218 8.204 32.0178 8.304 32.4578 8.304ZM39.2252 9.06C38.6332 9.06 38.1772 8.9 37.8572 8.58C37.5372 8.26 37.3772 7.808 37.3772 7.224V1.308H38.2292V7.176C38.2292 7.544 38.3212 7.828 38.5052 8.028C38.6972 8.228 38.9692 8.328 39.3212 8.328C39.6972 8.328 40.0092 8.22 40.2572 8.004L40.5572 8.616C40.3892 8.768 40.1852 8.88 39.9452 8.952C39.7132 9.024 39.4732 9.06 39.2252 9.06ZM36.2492 3.408V2.7H40.1492V3.408H36.2492ZM44.2736 9.06C43.6656 9.06 43.1176 8.924 42.6296 8.652C42.1496 8.372 41.7696 7.992 41.4896 7.512C41.2096 7.024 41.0696 6.468 41.0696 5.844C41.0696 5.212 41.2096 4.656 41.4896 4.176C41.7696 3.696 42.1496 3.32 42.6296 3.048C43.1096 2.776 43.6576 2.64 44.2736 2.64C44.8976 2.64 45.4496 2.776 45.9296 3.048C46.4176 3.32 46.7976 3.696 47.0696 4.176C47.3496 4.656 47.4896 5.212 47.4896 5.844C47.4896 6.468 47.3496 7.024 47.0696 7.512C46.7976 7.992 46.4176 8.372 45.9296 8.652C45.4416 8.924 44.8896 9.06 44.2736 9.06ZM44.2736 8.304C44.7296 8.304 45.1336 8.204 45.4856 8.004C45.8376 7.796 46.1136 7.508 46.3136 7.14C46.5216 6.764 46.6256 6.332 46.6256 5.844C46.6256 5.348 46.5216 4.916 46.3136 4.548C46.1136 4.18 45.8376 3.896 45.4856 3.696C45.1336 3.488 44.7336 3.384 44.2856 3.384C43.8376 3.384 43.4376 3.488 43.0856 3.696C42.7336 3.896 42.4536 4.18 42.2456 4.548C42.0376 4.916 41.9336 5.348 41.9336 5.844C41.9336 6.332 42.0376 6.764 42.2456 7.14C42.4536 7.508 42.7336 7.796 43.0856 8.004C43.4376 8.204 43.8336 8.304 44.2736 8.304ZM48.3572 10.752L48.8852 8.532L48.9812 9.048C48.7972 9.048 48.6412 8.988 48.5132 8.868C48.3932 8.748 48.3332 8.592 48.3332 8.4C48.3332 8.208 48.3932 8.052 48.5132 7.932C48.6412 7.812 48.7932 7.752 48.9692 7.752C49.1532 7.752 49.3012 7.816 49.4132 7.944C49.5332 8.072 49.5932 8.224 49.5932 8.4C49.5932 8.464 49.5892 8.528 49.5812 8.592C49.5732 8.656 49.5572 8.728 49.5332 8.808C49.5092 8.888 49.4772 8.984 49.4372 9.096L48.9332 10.752H48.3572ZM54.3768 9V0.599999H55.2648V9H54.3768ZM60.8539 2.64C61.3659 2.64 61.8139 2.74 62.1979 2.94C62.5899 3.132 62.8939 3.428 63.1099 3.828C63.3339 4.228 63.4459 4.732 63.4459 5.34V9H62.5939V5.424C62.5939 4.76 62.4259 4.26 62.0899 3.924C61.7619 3.58 61.2979 3.408 60.6979 3.408C60.2499 3.408 59.8579 3.5 59.5219 3.684C59.1939 3.86 58.9379 4.12 58.7539 4.464C58.5779 4.8 58.4899 5.208 58.4899 5.688V9H57.6379V2.7H58.4539V4.428L58.3219 4.104C58.5219 3.648 58.8419 3.292 59.2819 3.036C59.7219 2.772 60.2459 2.64 60.8539 2.64ZM68.1833 9.06C67.5593 9.06 66.9993 8.924 66.5033 8.652C66.0153 8.372 65.6313 7.992 65.3513 7.512C65.0713 7.024 64.9313 6.468 64.9313 5.844C64.9313 5.212 65.0713 4.656 65.3513 4.176C65.6313 3.696 66.0153 3.32 66.5033 3.048C66.9993 2.776 67.5593 2.64 68.1833 2.64C68.7193 2.64 69.2033 2.744 69.6353 2.952C70.0673 3.16 70.4073 3.472 70.6553 3.888L70.0193 4.32C69.8033 4 69.5353 3.764 69.2153 3.612C68.8953 3.46 68.5473 3.384 68.1713 3.384C67.7233 3.384 67.3193 3.488 66.9593 3.696C66.5993 3.896 66.3153 4.18 66.1073 4.548C65.8993 4.916 65.7953 5.348 65.7953 5.844C65.7953 6.34 65.8993 6.772 66.1073 7.14C66.3153 7.508 66.5993 7.796 66.9593 8.004C67.3193 8.204 67.7233 8.304 68.1713 8.304C68.5473 8.304 68.8953 8.228 69.2153 8.076C69.5353 7.924 69.8033 7.692 70.0193 7.38L70.6553 7.812C70.4073 8.22 70.0673 8.532 69.6353 8.748C69.2033 8.956 68.7193 9.06 68.1833 9.06ZM72.4674 9.06C72.2914 9.06 72.1394 8.996 72.0114 8.868C71.8914 8.74 71.8314 8.584 71.8314 8.4C71.8314 8.208 71.8914 8.052 72.0114 7.932C72.1394 7.812 72.2914 7.752 72.4674 7.752C72.6434 7.752 72.7914 7.812 72.9114 7.932C73.0394 8.052 73.1034 8.208 73.1034 8.4C73.1034 8.584 73.0394 8.74 72.9114 8.868C72.7914 8.996 72.6434 9.06 72.4674 9.06ZM76.987 9V8.388L80.479 4.968C80.799 4.656 81.039 4.384 81.199 4.152C81.359 3.912 81.467 3.688 81.523 3.48C81.579 3.272 81.607 3.076 81.607 2.892C81.607 2.404 81.439 2.02 81.103 1.74C80.775 1.46 80.287 1.32 79.639 1.32C79.143 1.32 78.703 1.396 78.319 1.548C77.943 1.7 77.619 1.936 77.347 2.256L76.735 1.728C77.063 1.344 77.483 1.048 77.995 0.84C78.507 0.632 79.079 0.528 79.711 0.528C80.279 0.528 80.771 0.62 81.187 0.804C81.603 0.98 81.923 1.24 82.147 1.584C82.379 1.928 82.495 2.332 82.495 2.796C82.495 3.068 82.455 3.336 82.375 3.6C82.303 3.864 82.167 4.144 81.967 4.44C81.775 4.728 81.491 5.056 81.115 5.424L77.911 8.568L77.671 8.232H82.879V9H76.987ZM87.1079 9.072C86.4599 9.072 85.8839 8.904 85.3799 8.568C84.8759 8.224 84.4799 7.736 84.1919 7.104C83.9039 6.464 83.7599 5.696 83.7599 4.8C83.7599 3.904 83.9039 3.14 84.1919 2.508C84.4799 1.868 84.8759 1.38 85.3799 1.044C85.8839 0.7 86.4599 0.528 87.1079 0.528C87.7559 0.528 88.3319 0.7 88.8359 1.044C89.3399 1.38 89.7359 1.868 90.0239 2.508C90.3199 3.14 90.4679 3.904 90.4679 4.8C90.4679 5.696 90.3199 6.464 90.0239 7.104C89.7359 7.736 89.3399 8.224 88.8359 8.568C88.3319 8.904 87.7559 9.072 87.1079 9.072ZM87.1079 8.28C87.6039 8.28 88.0359 8.148 88.4039 7.884C88.7719 7.612 89.0599 7.22 89.2679 6.708C89.4759 6.188 89.5799 5.552 89.5799 4.8C89.5799 4.048 89.4759 3.416 89.2679 2.904C89.0599 2.384 88.7719 1.992 88.4039 1.728C88.0359 1.456 87.6039 1.32 87.1079 1.32C86.6279 1.32 86.1999 1.456 85.8239 1.728C85.4479 1.992 85.1559 2.384 84.9479 2.904C84.7399 3.416 84.6359 4.048 84.6359 4.8C84.6359 5.552 84.7399 6.188 84.9479 6.708C85.1559 7.22 85.4479 7.612 85.8239 7.884C86.1999 8.148 86.6279 8.28 87.1079 8.28ZM92.9892 9V0.96L93.3732 1.368H91.0092V0.599999H93.8532V9H92.9892ZM98.2971 0.528C99.0411 0.528 99.6691 0.696 100.181 1.032C100.693 1.36 101.081 1.836 101.345 2.46C101.609 3.084 101.741 3.84 101.741 4.728C101.741 5.672 101.577 6.468 101.249 7.116C100.929 7.764 100.481 8.252 99.9051 8.58C99.3291 8.908 98.6611 9.072 97.9011 9.072C97.5251 9.072 97.1651 9.036 96.8211 8.964C96.4851 8.892 96.1811 8.776 95.9091 8.616L96.2571 7.92C96.4731 8.064 96.7211 8.168 97.0011 8.232C97.2891 8.288 97.5851 8.316 97.8891 8.316C98.7931 8.316 99.5131 8.028 100.049 7.452C100.593 6.876 100.865 6.016 100.865 4.872C100.865 4.688 100.853 4.468 100.829 4.212C100.813 3.956 100.769 3.7 100.697 3.444L100.997 3.672C100.917 4.088 100.745 4.444 100.481 4.74C100.225 5.028 99.9051 5.248 99.5211 5.4C99.1451 5.552 98.7251 5.628 98.2611 5.628C97.7091 5.628 97.2171 5.524 96.7851 5.316C96.3611 5.108 96.0291 4.816 95.7891 4.44C95.5491 4.064 95.4291 3.62 95.4291 3.108C95.4291 2.58 95.5531 2.124 95.8011 1.74C96.0491 1.356 96.3891 1.06 96.8211 0.852C97.2611 0.636 97.7531 0.528 98.2971 0.528ZM98.3331 1.26C97.9331 1.26 97.5771 1.336 97.2651 1.488C96.9611 1.632 96.7211 1.84 96.5451 2.112C96.3691 2.384 96.2811 2.708 96.2811 3.084C96.2811 3.636 96.4691 4.076 96.8451 4.404C97.2291 4.732 97.7451 4.896 98.3931 4.896C98.8251 4.896 99.2011 4.816 99.5211 4.656C99.8491 4.496 100.101 4.276 100.277 3.996C100.461 3.716 100.553 3.404 100.553 3.06C100.553 2.748 100.469 2.456 100.301 2.184C100.133 1.912 99.8851 1.692 99.5571 1.524C99.2291 1.348 98.8211 1.26 98.3331 1.26ZM103.333 9.06C103.157 9.06 103.005 8.996 102.877 8.868C102.757 8.74 102.697 8.584 102.697 8.4C102.697 8.208 102.757 8.052 102.877 7.932C103.005 7.812 103.157 7.752 103.333 7.752C103.509 7.752 103.657 7.812 103.777 7.932C103.905 8.052 103.969 8.208 103.969 8.4C103.969 8.584 103.905 8.74 103.777 8.868C103.657 8.996 103.509 9.06 103.333 9.06ZM110.66 9L107.828 0.599999H108.74L111.392 8.508H110.936L113.672 0.599999H114.488L117.188 8.508H116.756L119.432 0.599999H120.284L117.452 9H116.516L113.936 1.5H114.176L111.584 9H110.66ZM123.748 9.06C123.092 9.06 122.516 8.924 122.02 8.652C121.524 8.372 121.136 7.992 120.856 7.512C120.576 7.024 120.436 6.468 120.436 5.844C120.436 5.22 120.568 4.668 120.832 4.188C121.104 3.708 121.472 3.332 121.936 3.06C122.408 2.78 122.936 2.64 123.52 2.64C124.112 2.64 124.636 2.776 125.092 3.048C125.556 3.312 125.92 3.688 126.184 4.176C126.448 4.656 126.58 5.212 126.58 5.844C126.58 5.884 126.576 5.928 126.568 5.976C126.568 6.016 126.568 6.06 126.568 6.108H121.084V5.472H126.112L125.776 5.724C125.776 5.268 125.676 4.864 125.476 4.512C125.284 4.152 125.02 3.872 124.684 3.672C124.348 3.472 123.96 3.372 123.52 3.372C123.088 3.372 122.7 3.472 122.356 3.672C122.012 3.872 121.744 4.152 121.552 4.512C121.36 4.872 121.264 5.284 121.264 5.748V5.88C121.264 6.36 121.368 6.784 121.576 7.152C121.792 7.512 122.088 7.796 122.464 8.004C122.848 8.204 123.284 8.304 123.772 8.304C124.156 8.304 124.512 8.236 124.84 8.1C125.176 7.964 125.464 7.756 125.704 7.476L126.184 8.028C125.904 8.364 125.552 8.62 125.128 8.796C124.712 8.972 124.252 9.06 123.748 9.06ZM131.095 9V0.0959995H131.947V9H131.095ZM136.705 9.06C136.097 9.06 135.549 8.924 135.061 8.652C134.581 8.372 134.201 7.992 133.921 7.512C133.641 7.024 133.501 6.468 133.501 5.844C133.501 5.212 133.641 4.656 133.921 4.176C134.201 3.696 134.581 3.32 135.061 3.048C135.541 2.776 136.089 2.64 136.705 2.64C137.329 2.64 137.881 2.776 138.361 3.048C138.849 3.32 139.229 3.696 139.501 4.176C139.781 4.656 139.921 5.212 139.921 5.844C139.921 6.468 139.781 7.024 139.501 7.512C139.229 7.992 138.849 8.372 138.361 8.652C137.873 8.924 137.321 9.06 136.705 9.06ZM136.705 8.304C137.161 8.304 137.565 8.204 137.917 8.004C138.269 7.796 138.545 7.508 138.745 7.14C138.953 6.764 139.057 6.332 139.057 5.844C139.057 5.348 138.953 4.916 138.745 4.548C138.545 4.18 138.269 3.896 137.917 3.696C137.565 3.488 137.165 3.384 136.717 3.384C136.269 3.384 135.869 3.488 135.517 3.696C135.165 3.896 134.885 4.18 134.677 4.548C134.469 4.916 134.365 5.348 134.365 5.844C134.365 6.332 134.469 6.764 134.677 7.14C134.885 7.508 135.165 7.796 135.517 8.004C135.869 8.204 136.265 8.304 136.705 8.304ZM142.925 9L140.129 2.7H141.017L143.585 8.544H143.165L145.769 2.7H146.609L143.801 9H142.925ZM150.129 9.06C149.473 9.06 148.897 8.924 148.401 8.652C147.905 8.372 147.517 7.992 147.237 7.512C146.957 7.024 146.817 6.468 146.817 5.844C146.817 5.22 146.949 4.668 147.213 4.188C147.485 3.708 147.853 3.332 148.317 3.06C148.789 2.78 149.317 2.64 149.901 2.64C150.493 2.64 151.017 2.776 151.473 3.048C151.937 3.312 152.301 3.688 152.565 4.176C152.829 4.656 152.961 5.212 152.961 5.844C152.961 5.884 152.957 5.928 152.949 5.976C152.949 6.016 152.949 6.06 152.949 6.108H147.465V5.472H152.493L152.157 5.724C152.157 5.268 152.057 4.864 151.857 4.512C151.665 4.152 151.401 3.872 151.065 3.672C150.729 3.472 150.341 3.372 149.901 3.372C149.469 3.372 149.081 3.472 148.737 3.672C148.393 3.872 148.125 4.152 147.933 4.512C147.741 4.872 147.645 5.284 147.645 5.748V5.88C147.645 6.36 147.749 6.784 147.957 7.152C148.173 7.512 148.469 7.796 148.845 8.004C149.229 8.204 149.665 8.304 150.153 8.304C150.537 8.304 150.893 8.236 151.221 8.1C151.557 7.964 151.845 7.756 152.085 7.476L152.565 8.028C152.285 8.364 151.933 8.62 151.509 8.796C151.093 8.972 150.633 9.06 150.129 9.06ZM160.044 9.06C159.436 9.06 158.888 8.924 158.4 8.652C157.92 8.372 157.54 7.992 157.26 7.512C156.98 7.024 156.84 6.468 156.84 5.844C156.84 5.212 156.98 4.656 157.26 4.176C157.54 3.696 157.92 3.32 158.4 3.048C158.88 2.776 159.428 2.64 160.044 2.64C160.668 2.64 161.22 2.776 161.7 3.048C162.188 3.32 162.568 3.696 162.84 4.176C163.12 4.656 163.26 5.212 163.26 5.844C163.26 6.468 163.12 7.024 162.84 7.512C162.568 7.992 162.188 8.372 161.7 8.652C161.212 8.924 160.66 9.06 160.044 9.06ZM160.044 8.304C160.5 8.304 160.904 8.204 161.256 8.004C161.608 7.796 161.884 7.508 162.084 7.14C162.292 6.764 162.396 6.332 162.396 5.844C162.396 5.348 162.292 4.916 162.084 4.548C161.884 4.18 161.608 3.896 161.256 3.696C160.904 3.488 160.504 3.384 160.056 3.384C159.608 3.384 159.208 3.488 158.856 3.696C158.504 3.896 158.224 4.18 158.016 4.548C157.808 4.916 157.704 5.348 157.704 5.844C157.704 6.332 157.808 6.764 158.016 7.14C158.224 7.508 158.504 7.796 158.856 8.004C159.208 8.204 159.604 8.304 160.044 8.304ZM167.423 9.06C166.887 9.06 166.419 8.96 166.019 8.76C165.619 8.56 165.307 8.26 165.083 7.86C164.867 7.46 164.759 6.96 164.759 6.36V2.7H165.611V6.264C165.611 6.936 165.775 7.444 166.103 7.788C166.439 8.124 166.907 8.292 167.507 8.292C167.947 8.292 168.327 8.204 168.647 8.028C168.975 7.844 169.223 7.58 169.391 7.236C169.567 6.892 169.655 6.48 169.655 6V2.7H170.507V9H169.691V7.272L169.823 7.584C169.623 8.048 169.311 8.412 168.887 8.676C168.471 8.932 167.983 9.06 167.423 9.06ZM172.702 9V2.7H173.518V4.416L173.434 4.116C173.61 3.636 173.906 3.272 174.322 3.024C174.738 2.768 175.254 2.64 175.87 2.64V3.468C175.838 3.468 175.806 3.468 175.774 3.468C175.742 3.46 175.71 3.456 175.678 3.456C175.014 3.456 174.494 3.66 174.118 4.068C173.742 4.468 173.554 5.04 173.554 5.784V9H172.702ZM182.903 9.06C182.367 9.06 181.899 8.96 181.499 8.76C181.099 8.56 180.787 8.26 180.563 7.86C180.347 7.46 180.239 6.96 180.239 6.36V2.7H181.091V6.264C181.091 6.936 181.255 7.444 181.583 7.788C181.919 8.124 182.387 8.292 182.987 8.292C183.427 8.292 183.807 8.204 184.127 8.028C184.455 7.844 184.703 7.58 184.871 7.236C185.047 6.892 185.135 6.48 185.135 6V2.7H185.987V9H185.171V7.272L185.303 7.584C185.103 8.048 184.791 8.412 184.367 8.676C183.951 8.932 183.463 9.06 182.903 9.06ZM189.874 9.06C189.354 9.06 188.862 8.988 188.398 8.844C187.934 8.692 187.57 8.504 187.306 8.28L187.69 7.608C187.946 7.8 188.274 7.968 188.674 8.112C189.074 8.248 189.494 8.316 189.934 8.316C190.534 8.316 190.966 8.224 191.23 8.04C191.494 7.848 191.626 7.596 191.626 7.284C191.626 7.052 191.55 6.872 191.398 6.744C191.254 6.608 191.062 6.508 190.822 6.444C190.582 6.372 190.314 6.312 190.018 6.264C189.722 6.216 189.426 6.16 189.13 6.096C188.842 6.032 188.578 5.94 188.338 5.82C188.098 5.692 187.902 5.52 187.75 5.304C187.606 5.088 187.534 4.8 187.534 4.44C187.534 4.096 187.63 3.788 187.822 3.516C188.014 3.244 188.294 3.032 188.662 2.88C189.038 2.72 189.494 2.64 190.03 2.64C190.438 2.64 190.846 2.696 191.254 2.808C191.662 2.912 191.998 3.052 192.262 3.228L191.89 3.912C191.61 3.72 191.31 3.584 190.99 3.504C190.67 3.416 190.35 3.372 190.03 3.372C189.462 3.372 189.042 3.472 188.77 3.672C188.506 3.864 188.374 4.112 188.374 4.416C188.374 4.656 188.446 4.844 188.59 4.98C188.742 5.116 188.938 5.224 189.178 5.304C189.426 5.376 189.694 5.436 189.982 5.484C190.278 5.532 190.57 5.592 190.858 5.664C191.154 5.728 191.422 5.82 191.662 5.94C191.91 6.052 192.106 6.216 192.25 6.432C192.402 6.64 192.478 6.916 192.478 7.26C192.478 7.628 192.374 7.948 192.166 8.22C191.966 8.484 191.67 8.692 191.278 8.844C190.894 8.988 190.426 9.06 189.874 9.06ZM196.537 9.06C195.881 9.06 195.305 8.924 194.809 8.652C194.313 8.372 193.925 7.992 193.645 7.512C193.365 7.024 193.225 6.468 193.225 5.844C193.225 5.22 193.357 4.668 193.621 4.188C193.893 3.708 194.261 3.332 194.725 3.06C195.197 2.78 195.725 2.64 196.309 2.64C196.901 2.64 197.425 2.776 197.881 3.048C198.345 3.312 198.709 3.688 198.973 4.176C199.237 4.656 199.369 5.212 199.369 5.844C199.369 5.884 199.365 5.928 199.357 5.976C199.357 6.016 199.357 6.06 199.357 6.108H193.873V5.472H198.901L198.565 5.724C198.565 5.268 198.465 4.864 198.265 4.512C198.073 4.152 197.809 3.872 197.473 3.672C197.137 3.472 196.749 3.372 196.309 3.372C195.877 3.372 195.489 3.472 195.145 3.672C194.801 3.872 194.533 4.152 194.341 4.512C194.149 4.872 194.053 5.284 194.053 5.748V5.88C194.053 6.36 194.157 6.784 194.365 7.152C194.581 7.512 194.877 7.796 195.253 8.004C195.637 8.204 196.073 8.304 196.561 8.304C196.945 8.304 197.301 8.236 197.629 8.1C197.965 7.964 198.253 7.756 198.493 7.476L198.973 8.028C198.693 8.364 198.341 8.62 197.917 8.796C197.501 8.972 197.041 9.06 196.537 9.06ZM200.923 9V2.7H201.739V4.416L201.655 4.116C201.831 3.636 202.127 3.272 202.543 3.024C202.959 2.768 203.475 2.64 204.091 2.64V3.468C204.059 3.468 204.027 3.468 203.995 3.468C203.963 3.46 203.931 3.456 203.899 3.456C203.235 3.456 202.715 3.66 202.339 4.068C201.963 4.468 201.775 5.04 201.775 5.784V9H200.923ZM207.228 9.06C206.708 9.06 206.216 8.988 205.752 8.844C205.288 8.692 204.924 8.504 204.66 8.28L205.044 7.608C205.3 7.8 205.628 7.968 206.028 8.112C206.428 8.248 206.848 8.316 207.288 8.316C207.888 8.316 208.32 8.224 208.584 8.04C208.848 7.848 208.98 7.596 208.98 7.284C208.98 7.052 208.904 6.872 208.752 6.744C208.608 6.608 208.416 6.508 208.176 6.444C207.936 6.372 207.668 6.312 207.372 6.264C207.076 6.216 206.78 6.16 206.484 6.096C206.196 6.032 205.932 5.94 205.692 5.82C205.452 5.692 205.256 5.52 205.104 5.304C204.96 5.088 204.888 4.8 204.888 4.44C204.888 4.096 204.984 3.788 205.176 3.516C205.368 3.244 205.648 3.032 206.016 2.88C206.392 2.72 206.848 2.64 207.384 2.64C207.792 2.64 208.2 2.696 208.608 2.808C209.016 2.912 209.352 3.052 209.616 3.228L209.244 3.912C208.964 3.72 208.664 3.584 208.344 3.504C208.024 3.416 207.704 3.372 207.384 3.372C206.816 3.372 206.396 3.472 206.124 3.672C205.86 3.864 205.728 4.112 205.728 4.416C205.728 4.656 205.8 4.844 205.944 4.98C206.096 5.116 206.292 5.224 206.532 5.304C206.78 5.376 207.048 5.436 207.336 5.484C207.632 5.532 207.924 5.592 208.212 5.664C208.508 5.728 208.776 5.82 209.016 5.94C209.264 6.052 209.46 6.216 209.604 6.432C209.756 6.64 209.832 6.916 209.832 7.26C209.832 7.628 209.728 7.948 209.52 8.22C209.32 8.484 209.024 8.692 208.632 8.844C208.248 8.988 207.78 9.06 207.228 9.06ZM211.251 6.48L211.083 0.599999H212.091L211.911 6.48H211.251ZM211.587 9.06C211.411 9.06 211.259 9 211.131 8.88C211.011 8.752 210.951 8.604 210.951 8.436C210.951 8.26 211.011 8.116 211.131 8.004C211.259 7.884 211.411 7.824 211.587 7.824C211.771 7.824 211.919 7.884 212.031 8.004C212.151 8.116 212.211 8.26 212.211 8.436C212.211 8.604 212.151 8.752 212.031 8.88C211.919 9 211.771 9.06 211.587 9.06Z" fill="black" fill-opacity="0.8"/>
</svg>
